<?xml version="1.0" encoding="UTF-8" standalone="no"?>
<svg
   viewBox="0 0 851 250"
   version="1.1"
   id="svg30"
   sodipodi:docname="cincel.svg"
   inkscape:version="1.2.2 (b0a8486541, 2022-12-01)"
   xmlns:inkscape="http://www.inkscape.org/namespaces/inkscape"
   xmlns:sodipodi="http://sodipodi.sourceforge.net/DTD/sodipodi-0.dtd"
   xmlns="http://www.w3.org/2000/svg"
   xmlns:svg="http://www.w3.org/2000/svg">
  <sodipodi:namedview
     id="namedview32"
     pagecolor="#ffffff"
     bordercolor="#000000"
     borderopacity="0.25"
     inkscape:showpageshadow="2"
     inkscape:pageopacity="0.0"
     inkscape:pagecheckerboard="0"
     inkscape:deskcolor="#d1d1d1"
     showgrid="false"
     inkscape:zoom="0.58454715"
     inkscape:cx="149.68852"
     inkscape:cy="299.37705"
     inkscape:window-width="1867"
     inkscape:window-height="1043"
     inkscape:window-x="1973"
     inkscape:window-y="0"
     inkscape:window-maximized="1"
     inkscape:current-layer="svg30" />
  <defs
     id="defs4">
    <style
       id="style2">.a{fill:#f93;}</style>
  </defs>
  <title
     id="title6">Mesa de trabajo 2</title>
  <path
     d="M324.3,84.6a90.5,90.5,0,0,0-17.7-7.9,56.8,56.8,0,0,0-16.8-2.5,47.5,47.5,0,0,0-18.3,3.4,42,42,0,0,0-14.3,9.6,43.7,43.7,0,0,0-9.3,14.6,50.5,50.5,0,0,0-3.3,18.7,58.1,58.1,0,0,0,3.7,20.8,53,53,0,0,0,10.1,16.9,47.7,47.7,0,0,0,15.2,11.3,43.2,43.2,0,0,0,18.8,4.1,67.6,67.6,0,0,0,19.5-2.9,121.1,121.1,0,0,0,22-9.5l-9.5,22.1a80.4,80.4,0,0,1-14.3,4.3,81.5,81.5,0,0,1-15.2,1.3,88.3,88.3,0,0,1-29.4-4.7A65.9,65.9,0,0,1,242.8,171a57.9,57.9,0,0,1-14.5-20.5,67.6,67.6,0,0,1-5.1-26.7,67.3,67.3,0,0,1,5-26.2,62.6,62.6,0,0,1,14-20.8A64.2,64.2,0,0,1,263.4,63a71.4,71.4,0,0,1,26.8-4.9q14.2,0,34.1,4.8Z"
     id="path8" />
  <path
     d="M353.9,85.3q0-6.1-.4-10a30,30,0,0,0-1.3-6.6,11.7,11.7,0,0,0-2.5-4.4,16.8,16.8,0,0,0-4.3-3.1h35.9a16.7,16.7,0,0,0-4.3,3.1,11.6,11.6,0,0,0-2.5,4.4,29.7,29.7,0,0,0-1.3,6.6q-.4,4-.4,10v76.3q0,6.1.4,10a29.7,29.7,0,0,0,1.3,6.6,11.6,11.6,0,0,0,2.5,4.4,16.6,16.6,0,0,0,4.3,3.1H345.5a16.6,16.6,0,0,0,4.3-3.1,11.6,11.6,0,0,0,2.5-4.4,30,30,0,0,0,1.3-6.6q.4-3.9.4-10Z"
     id="path10" />
  <path
     d="M422.5,163.6a60.6,60.6,0,0,0,.4,8,21.3,21.3,0,0,0,1.6,5.9,16,16,0,0,0,3.1,4.6,24.3,24.3,0,0,0,4.8,3.8H398.6a30.6,30.6,0,0,0,5-3.9,14.2,14.2,0,0,0,3.1-4.5,22.4,22.4,0,0,0,1.5-5.8,61.1,61.1,0,0,0,.4-8V83.4a61.1,61.1,0,0,0-.4-8,21.5,21.5,0,0,0-1.6-5.9,14.9,14.9,0,0,0-3.1-4.5,34.1,34.1,0,0,0-4.8-3.9h27.6a4.2,4.2,0,0,0,.4,1.2l.7,1.2,1.2,1.8,2.2,2.9,70.2,89.4V83.4a61.1,61.1,0,0,0-.4-8,20.3,20.3,0,0,0-1.6-5.8,15.7,15.7,0,0,0-3.1-4.5,34.8,34.8,0,0,0-4.8-3.9h33.9a30.6,30.6,0,0,0-5,3.9,14.2,14.2,0,0,0-3.1,4.5,22.4,22.4,0,0,0-1.5,5.8,60.6,60.6,0,0,0-.4,8V191.9a45.7,45.7,0,0,1-14.1-7.3A60.9,60.9,0,0,1,488.9,172L422.5,87.9Z"
     id="path12" />
  <path
     d="M639.6,84.6a90.5,90.5,0,0,0-17.7-7.9,56.8,56.8,0,0,0-16.8-2.5,47.5,47.5,0,0,0-18.3,3.4,42,42,0,0,0-14.3,9.6,43.7,43.7,0,0,0-9.3,14.6,50.5,50.5,0,0,0-3.3,18.7,58.1,58.1,0,0,0,3.7,20.8,53.1,53.1,0,0,0,10.1,16.9,47.7,47.7,0,0,0,15.2,11.3,43.2,43.2,0,0,0,18.8,4.1,67.6,67.6,0,0,0,19.5-2.9,121.2,121.2,0,0,0,22-9.5l-9.5,22.1a80.5,80.5,0,0,1-14.3,4.3,81.5,81.5,0,0,1-15.2,1.3,88.3,88.3,0,0,1-29.4-4.7A65.9,65.9,0,0,1,558.1,171a57.9,57.9,0,0,1-14.5-20.5,67.6,67.6,0,0,1-5.1-26.7,67.3,67.3,0,0,1,5-26.2,62.6,62.6,0,0,1,14-20.8A64.2,64.2,0,0,1,578.7,63a71.4,71.4,0,0,1,26.8-4.9q14.2,0,34.1,4.8Z"
     id="path14" />
  <path
     d="M688.2,169.9q6.6,1.1,11.8,1.5t11.6.4q12.4,0,20.8-2.5a51.7,51.7,0,0,0,16.2-8.3l-8.8,24.8h-79a16.6,16.6,0,0,0,4.3-3.1,11.7,11.7,0,0,0,2.5-4.4,30.3,30.3,0,0,0,1.3-6.7q.4-4,.4-10.1V85.3q0-6.1-.4-10.1a26.9,26.9,0,0,0-1.3-6.7,11.7,11.7,0,0,0-2.6-4.3,19.5,19.5,0,0,0-4.1-3.1h63l3.9-.2A16.9,16.9,0,0,0,731,60V82.1a45.8,45.8,0,0,0-4.5-3.7,16.9,16.9,0,0,0-4.8-2.3,31.7,31.7,0,0,0-6-1.2,76.8,76.8,0,0,0-7.9-.4q-6.8,0-11.1.3a77.8,77.8,0,0,0-8.4,1v35.5h25.3l3.4-.2a9.6,9.6,0,0,0,3.1-1.2V130a11.7,11.7,0,0,0-5.5-4.1,30.9,30.9,0,0,0-9.4-1.1H688.2Z"
     id="path16" />
  <path
     d="M786.9,170.4q6.3.9,12.8,1.4t12.7.5a64.6,64.6,0,0,0,9.3-.6,48.3,48.3,0,0,0,8.3-2,47.5,47.5,0,0,0,8.1-3.6q4-2.2,8.7-5.5l-10,25.1H759.5a16.6,16.6,0,0,0,4.3-3.1,11.7,11.7,0,0,0,2.5-4.4,30,30,0,0,0,1.3-6.6q.4-3.9.4-10V85.3q0-6.1-.4-10a30.1,30.1,0,0,0-1.3-6.6,11.7,11.7,0,0,0-2.5-4.4,16.8,16.8,0,0,0-4.3-3.1h35.9a16.8,16.8,0,0,0-4.3,3.1,11.6,11.6,0,0,0-2.5,4.4,29.7,29.7,0,0,0-1.3,6.6q-.4,4-.4,10Z"
     id="path18" />
  <path
     d="M155,152.6,17.7,89.6l2.5-5.8L156.7,144l26.2-.4,38,25.3L184.1,135l-28.6,1.6L22.4,78.9l.2-.4a5.2,5.2,0,0,0-2.7-6.9,5.5,5.5,0,0,0-7,3L6.6,89a5.2,5.2,0,0,0,2.7,6.9,5.4,5.4,0,0,0,6.2-1.6l133.4,62L162,180.4l56.4,4.5L171,173Z"
     id="path20" />
  <path
     class="a"
     d="M74.5,59.2s20.8-19.4,29.9-15.4c6,2.7,5.3,10.1,3.3,17.2a89.8,89.8,0,0,1-5.9,14.7c-37.6,68.5-63.3,77.6-63.3,77.6S99.4,99.5,93.4,57.9C92.2,48.3,74.5,59.2,74.5,59.2Z"
     id="path22" />
  <path
     class="a"
     d="M101.5,76.3s20.8-19.4,29.9-15.4c6,2.7,5.3,10.1,3.3,17.2a89.8,89.8,0,0,1-5.9,14.7c-37.6,68.5-63.3,77.6-63.3,77.6s60.9-53.8,54.9-95.4C119.2,65.4,101.5,76.3,101.5,76.3Z"
     id="path24" />
  <path
     class="a"
     d="M127.4,95.3s20.8-19.4,29.9-15.4c6,2.7,5.3,10.1,3.3,17.2a89.8,89.8,0,0,1-5.9,14.7c-37.6,68.5-63.3,77.6-63.3,77.6s60.9-53.8,54.9-95.4C145,84.4,127.4,95.3,127.4,95.3Z"
     id="path26" />
  <path
     class="a"
     d="M154.2,112.7s20.8-19.4,29.9-15.4c6,2.7,5.3,10.1,3.3,17.2a89.8,89.8,0,0,1-5.9,14.7c-37.6,68.5-63.3,77.6-63.3,77.6s60.9-53.8,54.9-95.4C171.9,101.8,154.2,112.7,154.2,112.7Z"
     id="path28" />
  <path
     style="fill:#ffffff;stroke-width:0.604833"
     d="m 286.31746,188.71053 c -32.76457,-3.11229 -55.55262,-21.45026 -61.63514,-49.59895 -5.93461,-27.46412 4.39177,-54.662988 26.46855,-69.716063 16.98924,-11.584136 38.32224,-14.174515 66.68886,-8.097755 l 6.35075,1.36047 0.16473,10.978519 0.16474,10.978519 -6.21307,-2.936536 c -12.22694,-5.778929 -20.84621,-7.716588 -31.55245,-7.09316 -7.52184,0.438 -11.86007,1.564978 -18.511,4.808752 -4.10748,2.003288 -6.19047,3.552261 -10.36066,7.704499 -4.41212,4.393138 -5.64353,6.081413 -7.96022,10.913568 -4.5895,9.572787 -6.1187,19.258347 -4.70937,29.827837 3.72208,27.91424 24.86986,47.10561 50.11328,45.47721 10.97817,-0.70817 19.04791,-2.94597 30.92194,-8.57487 3.79313,-1.79813 7.02876,-3.13717 7.19029,-2.97564 0.58003,0.58003 -8.65335,21.04186 -9.85305,21.83506 -1.62846,1.07667 -11.0317,3.75794 -15.63597,4.45847 -5.84035,0.88861 -15.92932,1.19179 -21.63221,0.65007 z"
     id="path294" />
  <path
     style="fill:#ffffff;stroke-width:0.604833"
     d="m 347.53892,184.21754 c 2.76831,-1.88111 3.94464,-3.71573 5.15771,-8.04408 0.86896,-3.10056 0.96816,-8.93789 0.88167,-51.88028 -0.0615,-30.54714 -0.33101,-49.724604 -0.7309,-52.015639 -0.57284,-3.281776 -2.65626,-8.132324 -3.51652,-8.186997 -0.18824,-0.01196 -1.15878,-0.691048 -2.15675,-1.509078 l -1.8145,-1.487327 17.70199,-0.003 17.70198,-0.003 -2.67536,2.57054 c -5.09141,4.891931 -4.90629,2.638408 -4.90629,59.727261 0,57.08885 -0.18512,54.83532 4.90629,59.72725 l 2.67536,2.57054 h -17.69118 -17.69118 z"
     id="path296" />
  <path
     style="fill:#ffffff;stroke-width:0.604833"
     d="m 509.60911,189.8889 c -5.4263,-2.56705 -10.54643,-6.37256 -15.15815,-11.26623 -2.16228,-2.29448 -19.17321,-23.51568 -37.80206,-47.15824 l -33.87065,-42.986464 -0.16711,38.471924 c -0.10072,23.18436 0.0748,40.48747 0.44176,43.54415 0.73194,6.09728 2.87689,10.37652 6.55266,13.07277 1.36053,0.99797 2.49032,2.01863 2.51065,2.26812 0.0203,0.2495 -7.44786,0.45363 -16.59595,0.45363 -9.1481,0 -16.61741,-0.20413 -16.59847,-0.45363 0.019,-0.24949 1.34388,-1.45019 2.9443,-2.66821 3.54868,-2.70077 5.37762,-6.24662 6.16953,-11.96115 0.34861,-2.51561 0.51259,-22.98944 0.40582,-50.66746 l -0.17918,-46.44607 -1.39241,-3.445918 c -0.9883,-2.445846 -2.36283,-4.332837 -4.73619,-6.501954 l -3.34379,-3.056037 h 13.85016 13.85017 l 0.86577,1.804935 c 1.00663,2.098569 72.61762,93.668184 73.29453,93.722364 0.63854,0.0511 0.53587,-72.262725 -0.11211,-78.956203 -0.65365,-6.752066 -2.42024,-10.568883 -6.51696,-14.080205 l -2.89705,-2.483081 16.92493,-0.0039 16.92494,-0.0039 -3.186,2.787034 c -3.89684,3.408863 -5.38002,6.192412 -6.15484,11.55107 -0.35446,2.451489 -0.599,26.740975 -0.60615,60.207565 -0.009,44.46925 -0.1687,56.09816 -0.76802,56.09778 -0.41582,-2.6e-4 -2.50838,-0.82947 -4.65013,-1.84268 z"
     id="path298" />
  <path
     style="fill:#ffffff;stroke-width:0.604833"
     d="m 601.01264,188.67893 c -9.73761,-0.9248 -21.24434,-4.138 -29.16448,-8.14406 -8.05803,-4.0758 -17.04307,-11.71277 -22.05038,-18.74205 -5.12865,-7.19963 -9.09533,-17.08201 -10.56063,-26.31023 -0.92635,-5.834 -0.77529,-19.07779 0.28112,-24.64673 3.53454,-18.632573 14.4994,-34.333045 30.5062,-43.68152 16.51585,-9.645779 36.20467,-11.486955 62.93324,-5.885128 l 6.35075,1.331001 0.1649,11.05115 0.1649,11.051149 -5.48984,-2.757165 c -11.2773,-5.6638 -21.36893,-7.973486 -32.27601,-7.38706 -13.16329,0.707732 -24.81544,6.58584 -32.26442,16.276293 -16.21066,21.08861 -11.01496,56.74528 10.6614,73.16631 8.69398,6.58617 16.59513,9.19346 27.89017,9.20348 11.61521,0.0103 21.01077,-2.4324 34.99026,-9.09691 3.11073,-1.48299 5.73395,-2.61046 5.82938,-2.50549 0.0954,0.10497 -1.94014,5.07693 -4.5235,11.04882 l -4.69702,10.85797 -5.06377,1.70882 c -9.45493,3.19065 -22.46016,4.52713 -33.68227,3.46135 z"
     id="path300" />
  <path
     style="fill:#ffffff;stroke-width:0.604833"
     d="m 664.12975,183.098 c 4.99077,-4.99076 4.81552,-2.81777 4.81552,-59.71207 0,-57.059295 0.18174,-54.838531 -4.88607,-59.707884 l -2.65514,-2.551165 33.70984,-0.170583 c 18.54041,-0.09382 34.18614,-0.403835 34.7683,-0.688919 0.98817,-0.483914 1.05845,0.208936 1.05845,10.433369 0,6.023437 -0.23884,10.951704 -0.53077,10.951704 -0.29193,0 -0.88262,-0.423949 -1.31265,-0.94211 -1.28391,-1.547015 -5.78625,-3.941539 -9.18631,-4.885644 -3.49042,-0.969195 -20.08831,-1.281242 -27.26572,-0.512607 l -4.04285,0.432954 v 17.811053 17.811052 l 14.6672,-0.20595 c 8.06695,-0.11327 15.1435,-0.43209 15.72565,-0.70848 0.98574,-0.46801 1.05846,0.18755 1.05846,9.54192 0,9.95299 -0.0107,10.03373 -1.1775,8.86695 -3.07694,-3.07694 -4.42436,-3.34711 -17.72353,-3.55375 l -12.55028,-0.195 v 22.35397 22.35396 l 1.9657,0.32926 c 1.08114,0.1811 6.24741,0.66751 11.48061,1.08091 11.0496,0.87289 22.06088,0.16915 29.38856,-1.87823 4.77368,-1.33377 11.90889,-4.67086 15.07788,-7.05181 1.08114,-0.81229 1.96515,-1.25891 1.96447,-0.99248 -10e-4,0.47641 -6.64406,19.46235 -7.94653,22.71201 l -0.66665,1.66329 h -39.16118 -39.16118 z"
     id="path302" />
  <path
     style="fill:#ffffff;stroke-width:0.604833"
     d="m 762.60148,183.21981 c 5.14286,-4.52693 4.93157,-1.97627 4.93157,-59.53147 0,-57.429517 0.1875,-55.135451 -4.90629,-60.029669 l -2.67536,-2.57054 h 17.63593 17.63593 l -2.79585,2.461002 c -5.12811,4.513945 -4.89046,1.819827 -5.09678,57.779387 l -0.18085,49.05098 7.42937,0.77928 c 11.81705,1.23951 25.77033,0.99807 31.6227,-0.54719 5.30848,-1.40164 11.48466,-4.19181 16.6329,-7.51414 1.82962,-1.18071 3.39635,-1.9521 3.48162,-1.71421 0.0853,0.23789 -1.97238,5.73478 -4.57255,12.2153 l -4.72759,11.78277 -38.61207,0.15571 -38.61208,0.15572 z"
     id="path304" />
  <path
     style="fill:#ffffff;stroke-width:0.302417"
     d="M 42.520079,106.86095 15.509248,94.309767 14.861412,94.916544 c -1.524016,1.427424 -4.577449,1.706808 -6.2456174,0.571462 -1.7511616,-1.19183 -2.2663743,-2.164672 -2.2539621,-4.256007 0.010119,-1.704942 0.2960231,-2.514413 3.27667,-9.27713 1.7960705,-4.075063 3.5194725,-7.82265 3.8297825,-8.327973 1.302086,-2.120381 4.972793,-2.964008 7.120701,-1.636528 1.966263,1.215218 2.720289,3.431649 2.190344,6.438435 -0.103948,0.589778 0.0067,0.639404 41.559778,18.641134 8.607529,3.728973 15.650053,6.911413 15.650053,7.072073 0,0.61335 -2.80572,4.76024 -3.133379,4.63118 -0.364908,-0.14374 -38.198729,-16.824643 -46.91655,-20.685477 -2.827594,-1.252248 -6.178327,-2.723537 -7.446073,-3.269531 l -2.304993,-0.992716 -1.223206,2.847751 c -1.10462,2.571672 -1.173498,2.874354 -0.710468,3.12216 0.608727,0.325781 52.371419,24.103443 53.790376,24.709103 l 0.976989,0.417 -1.550177,2.12463 c -0.852597,1.16854 -1.63806,2.17894 -1.745473,2.24533 -0.107412,0.0664 -12.350169,-5.52734 -27.206128,-12.43049 z"
     id="path340" />
  <path
     style="fill:#ffffff;stroke-width:0.302417"
     d="m 93.749112,116.24661 c -6.985821,-3.08451 -12.812074,-5.71523 -12.947229,-5.84604 -0.19327,-0.18707 1.764159,-3.41011 2.82174,-4.64619 0.192155,-0.22459 25.225887,10.42655 25.810997,10.98185 0.24684,0.23425 -2.45071,5.1486 -2.81488,5.12809 -0.093,-0.005 -5.88481,-2.53321 -12.870628,-5.61771 z"
     id="path342" />
  <path
     style="fill:#ffffff;stroke-width:0.302417"
     d="m 94.043242,130.84771 c -2.499494,-1.19322 -8.310135,-3.91834 -12.912538,-6.05581 l -8.368004,-3.88632 1.694849,-2.25181 c 0.932167,-1.2385 1.843661,-2.19014 2.025544,-2.11477 0.728208,0.30177 25.741947,11.80045 25.853117,11.88454 0.23435,0.17724 -2.935517,4.48951 -3.338064,4.54108 -0.225704,0.0289 -2.455411,-0.92369 -4.954904,-2.11691 z"
     id="path344" />
  <path
     style="fill:#ffffff;stroke-width:0.302417"
     d="m 115.67431,140.87664 c -7.06899,-3.2984 -12.97591,-6.03857 -13.12649,-6.08925 -0.21344,-0.0718 1.01984,-1.98255 3.04342,-4.71515 0.0703,-0.095 17.4091,7.75582 24.64393,11.15849 l 1.70817,0.80338 -1.48389,2.30267 c -0.81615,1.26646 -1.58482,2.35538 -1.70817,2.41982 -0.12335,0.0644 -6.00799,-2.58155 -13.07697,-5.87996 z"
     id="path346" />
  <path
     style="fill:#ffffff;stroke-width:0.302417"
     d="m 123.08351,129.21129 c -6.98582,-3.09095 -12.74281,-5.65075 -12.79331,-5.68844 -0.14472,-0.10803 2.9773,-4.81373 3.2618,-4.91638 0.14023,-0.0506 5.33611,2.11098 11.5464,4.8035 6.21029,2.69252 11.87293,5.14597 12.58365,5.45212 l 1.2922,0.55662 -1.37084,2.72952 c -0.75397,1.50124 -1.47155,2.71905 -1.59463,2.70625 -0.12308,-0.0128 -5.93945,-2.55224 -12.92527,-5.64319 z"
     id="path348" />
  <path
     style="fill:#ffffff;stroke-width:0.302417"
     d="m 148.13692,140.24952 -8.21241,-3.64824 1.6334,-2.60066 c 0.89837,-1.43036 1.80416,-2.55776 2.01287,-2.50532 0.20871,0.0524 2.98292,1.22242 6.16492,2.59997 l 5.78545,2.50465 6.61362,-0.39062 c 3.6375,-0.21484 6.97381,-0.39819 7.41402,-0.40746 l 0.80039,-0.0168 -1.00585,2.70548 c -0.55322,1.48801 -1.27998,3.32519 -1.61503,4.08262 l -0.60918,1.37715 -5.3849,-0.0262 -5.3849,-0.0262 z"
     id="path350" />
  <path
     style="fill:#ffffff;stroke-width:0.302417"
     d="m 151.67766,161.40317 c -1.37441,-2.53012 -2.65468,-4.76018 -2.84504,-4.95568 -0.19037,-0.1955 -3.95928,-2.03268 -8.37536,-4.08262 -4.41609,-2.04994 -8.06522,-3.86325 -8.1092,-4.02958 -0.0842,-0.31848 2.70697,-4.66301 3.0057,-4.67847 0.0955,-0.005 4.5517,1.9983 9.90272,4.45166 l 9.72912,4.46064 2.2389,2.85192 2.23889,2.85192 -0.77111,1.2307 c -1.54141,2.46012 -4.09546,6.24002 -4.30299,6.36828 -0.11698,0.0723 -1.33721,-1.93865 -2.71163,-4.46877 z"
     id="path352" />
  <path
     style="fill:#ffffff;stroke-width:0.302417"
     d="m 188.51111,182.55266 -26.50702,-2.14563 -2.93257,-5.38363 c -2.74811,-5.04501 -2.90479,-5.42592 -2.49107,-6.05612 1.49862,-2.28273 5.13006,-7.33461 5.30535,-7.38056 0.11519,-0.0302 2.16333,2.463 4.55141,5.54041 2.38809,3.07742 4.63353,5.7173 4.98987,5.8664 0.35635,0.14911 10.71837,2.79923 23.02672,5.88916 12.30835,3.08993 22.51491,5.66935 22.68124,5.73204 0.72947,0.27497 -3.64934,-0.0405 -28.62393,-2.06207 z"
     id="path354" />
  <path
     style="fill:#ffffff;stroke-width:0.302417"
     d="m 201.26911,155.88242 -18.28526,-12.22055 -4.88013,-0.0826 -4.88013,-0.0826 2.29865,-4.01125 c 1.51995,-2.65239 2.50355,-4.05713 2.90349,-4.14668 0.33266,-0.0745 1.75366,-0.17683 3.15779,-0.22745 l 2.55295,-0.092 17.70895,16.29692 c 9.73992,8.96331 17.83823,16.41629 17.99625,16.56218 1.28473,1.18618 -2.68705,-1.37917 -18.57256,-11.99589 z"
     id="path356" />
  <path
     style="fill:#ffffff;stroke-width:0.013365"
     d="m 216.62736,184.76017 c -0.87841,-0.0708 -1.57977,-0.13071 -1.55856,-0.13313 0.0212,-0.002 0.20164,0.005 0.40095,0.0164 0.66321,0.0381 0.96088,0.0501 1.29126,0.0518 0.3378,0.002 0.44105,-0.007 0.44105,-0.0367 0,-0.0295 -0.0458,-0.0433 -0.73508,-0.22008 -0.23155,-0.0594 -0.64352,-0.16511 -0.9155,-0.23489 -0.27198,-0.0698 -0.71359,-0.18215 -0.98136,-0.24971 -0.26777,-0.0675 -0.48088,-0.12481 -0.47359,-0.12725 0.0113,-0.004 4.19379,1.04067 4.23385,1.05729 0.0348,0.0144 -0.19674,-0.002 -1.70302,-0.12381 z"
     id="path358" />
</svg>
