<svg xmlns="http://www.w3.org/2000/svg" viewBox="0 0 851 250"><defs><style>.a{fill:#f93;}</style></defs><title>Mesa de trabajo 2</title><path d="M324.3,84.6a90.5,90.5,0,0,0-17.7-7.9,56.8,56.8,0,0,0-16.8-2.5,47.5,47.5,0,0,0-18.3,3.4,42,42,0,0,0-14.3,9.6,43.7,43.7,0,0,0-9.3,14.6,50.5,50.5,0,0,0-3.3,18.7,58.1,58.1,0,0,0,3.7,20.8,53,53,0,0,0,10.1,16.9,47.7,47.7,0,0,0,15.2,11.3,43.2,43.2,0,0,0,18.8,4.1,67.6,67.6,0,0,0,19.5-2.9,121.1,121.1,0,0,0,22-9.5l-9.5,22.1a80.4,80.4,0,0,1-14.3,4.3,81.5,81.5,0,0,1-15.2,1.3,88.3,88.3,0,0,1-29.4-4.7A65.9,65.9,0,0,1,242.8,171a57.9,57.9,0,0,1-14.5-20.5,67.6,67.6,0,0,1-5.1-26.7,67.3,67.3,0,0,1,5-26.2,62.6,62.6,0,0,1,14-20.8A64.2,64.2,0,0,1,263.4,63a71.4,71.4,0,0,1,26.8-4.9q14.2,0,34.1,4.8Z"/><path d="M353.9,85.3q0-6.1-.4-10a30,30,0,0,0-1.3-6.6,11.7,11.7,0,0,0-2.5-4.4,16.8,16.8,0,0,0-4.3-3.1h35.9a16.7,16.7,0,0,0-4.3,3.1,11.6,11.6,0,0,0-2.5,4.4,29.7,29.7,0,0,0-1.3,6.6q-.4,4-.4,10v76.3q0,6.1.4,10a29.7,29.7,0,0,0,1.3,6.6,11.6,11.6,0,0,0,2.5,4.4,16.6,16.6,0,0,0,4.3,3.1H345.5a16.6,16.6,0,0,0,4.3-3.1,11.6,11.6,0,0,0,2.5-4.4,30,30,0,0,0,1.3-6.6q.4-3.9.4-10Z"/><path d="M422.5,163.6a60.6,60.6,0,0,0,.4,8,21.3,21.3,0,0,0,1.6,5.9,16,16,0,0,0,3.1,4.6,24.3,24.3,0,0,0,4.8,3.8H398.6a30.6,30.6,0,0,0,5-3.9,14.2,14.2,0,0,0,3.1-4.5,22.4,22.4,0,0,0,1.5-5.8,61.1,61.1,0,0,0,.4-8V83.4a61.1,61.1,0,0,0-.4-8,21.5,21.5,0,0,0-1.6-5.9,14.9,14.9,0,0,0-3.1-4.5,34.1,34.1,0,0,0-4.8-3.9h27.6a4.2,4.2,0,0,0,.4,1.2l.7,1.2,1.2,1.8,2.2,2.9,70.2,89.4V83.4a61.1,61.1,0,0,0-.4-8,20.3,20.3,0,0,0-1.6-5.8,15.7,15.7,0,0,0-3.1-4.5,34.8,34.8,0,0,0-4.8-3.9h33.9a30.6,30.6,0,0,0-5,3.9,14.2,14.2,0,0,0-3.1,4.5,22.4,22.4,0,0,0-1.5,5.8,60.6,60.6,0,0,0-.4,8V191.9a45.7,45.7,0,0,1-14.1-7.3A60.9,60.9,0,0,1,488.9,172L422.5,87.9Z"/><path d="M639.6,84.6a90.5,90.5,0,0,0-17.7-7.9,56.8,56.8,0,0,0-16.8-2.5,47.5,47.5,0,0,0-18.3,3.4,42,42,0,0,0-14.3,9.6,43.7,43.7,0,0,0-9.3,14.6,50.5,50.5,0,0,0-3.3,18.7,58.1,58.1,0,0,0,3.7,20.8,53.1,53.1,0,0,0,10.1,16.9,47.7,47.7,0,0,0,15.2,11.3,43.2,43.2,0,0,0,18.8,4.1,67.6,67.6,0,0,0,19.5-2.9,121.2,121.2,0,0,0,22-9.5l-9.5,22.1a80.5,80.5,0,0,1-14.3,4.3,81.5,81.5,0,0,1-15.2,1.3,88.3,88.3,0,0,1-29.4-4.7A65.9,65.9,0,0,1,558.1,171a57.9,57.9,0,0,1-14.5-20.5,67.6,67.6,0,0,1-5.1-26.7,67.3,67.3,0,0,1,5-26.2,62.6,62.6,0,0,1,14-20.8A64.2,64.2,0,0,1,578.7,63a71.4,71.4,0,0,1,26.8-4.9q14.2,0,34.1,4.8Z"/><path d="M688.2,169.9q6.6,1.1,11.8,1.5t11.6.4q12.4,0,20.8-2.5a51.7,51.7,0,0,0,16.2-8.3l-8.8,24.8h-79a16.6,16.6,0,0,0,4.3-3.1,11.7,11.7,0,0,0,2.5-4.4,30.3,30.3,0,0,0,1.3-6.7q.4-4,.4-10.1V85.3q0-6.1-.4-10.1a26.9,26.9,0,0,0-1.3-6.7,11.7,11.7,0,0,0-2.6-4.3,19.5,19.5,0,0,0-4.1-3.1h63l3.9-.2A16.9,16.9,0,0,0,731,60V82.1a45.8,45.8,0,0,0-4.5-3.7,16.9,16.9,0,0,0-4.8-2.3,31.7,31.7,0,0,0-6-1.2,76.8,76.8,0,0,0-7.9-.4q-6.8,0-11.1.3a77.8,77.8,0,0,0-8.4,1v35.5h25.3l3.4-.2a9.6,9.6,0,0,0,3.1-1.2V130a11.7,11.7,0,0,0-5.5-4.1,30.9,30.9,0,0,0-9.4-1.1H688.2Z"/><path d="M786.9,170.4q6.3.9,12.8,1.4t12.7.5a64.6,64.6,0,0,0,9.3-.6,48.3,48.3,0,0,0,8.3-2,47.5,47.5,0,0,0,8.1-3.6q4-2.2,8.7-5.5l-10,25.1H759.5a16.6,16.6,0,0,0,4.3-3.1,11.7,11.7,0,0,0,2.5-4.4,30,30,0,0,0,1.3-6.6q.4-3.9.4-10V85.3q0-6.1-.4-10a30.1,30.1,0,0,0-1.3-6.6,11.7,11.7,0,0,0-2.5-4.4,16.8,16.8,0,0,0-4.3-3.1h35.9a16.8,16.8,0,0,0-4.3,3.1,11.6,11.6,0,0,0-2.5,4.4,29.7,29.7,0,0,0-1.3,6.6q-.4,4-.4,10Z"/><path d="M155,152.6,17.7,89.6l2.5-5.8L156.7,144l26.2-.4,38,25.3L184.1,135l-28.6,1.6L22.4,78.9l.2-.4a5.2,5.2,0,0,0-2.7-6.9,5.5,5.5,0,0,0-7,3L6.6,89a5.2,5.2,0,0,0,2.7,6.9,5.4,5.4,0,0,0,6.2-1.6l133.4,62L162,180.4l56.4,4.5L171,173Z"/><path class="a" d="M74.5,59.2s20.8-19.4,29.9-15.4c6,2.7,5.3,10.1,3.3,17.2a89.8,89.8,0,0,1-5.9,14.7c-37.6,68.5-63.3,77.6-63.3,77.6S99.4,99.5,93.4,57.9C92.2,48.3,74.5,59.2,74.5,59.2Z"/><path class="a" d="M101.5,76.3s20.8-19.4,29.9-15.4c6,2.7,5.3,10.1,3.3,17.2a89.8,89.8,0,0,1-5.9,14.7c-37.6,68.5-63.3,77.6-63.3,77.6s60.9-53.8,54.9-95.4C119.2,65.4,101.5,76.3,101.5,76.3Z"/><path class="a" d="M127.4,95.3s20.8-19.4,29.9-15.4c6,2.7,5.3,10.1,3.3,17.2a89.8,89.8,0,0,1-5.9,14.7c-37.6,68.5-63.3,77.6-63.3,77.6s60.9-53.8,54.9-95.4C145,84.4,127.4,95.3,127.4,95.3Z"/><path class="a" d="M154.2,112.7s20.8-19.4,29.9-15.4c6,2.7,5.3,10.1,3.3,17.2a89.8,89.8,0,0,1-5.9,14.7c-37.6,68.5-63.3,77.6-63.3,77.6s60.9-53.8,54.9-95.4C171.9,101.8,154.2,112.7,154.2,112.7Z"/></svg>